<svg
class="pwn-logo__img"
viewBox="0 0 1058 345"
fill="none"
xmlns="http://www.w3.org/2000/svg">
<rect
  x="0.881104"
  y="0.928955"
  width="283.585"
  height="34.3739"
  fill="#00FFE0"/>
<rect
  x="0.879395"
  y="155.612"
  width="283.585"
  height="34.3739"
  fill="#00FFE0"/>
<rect
  x="0.879395"
  y="52.4897"
  width="77.3413"
  height="34.3739"
  fill="#00FFE0"/>
<rect
  x="207.122"
  y="52.4897"
  width="77.3413"
  height="34.3739"
  fill="#00FFE0"/>
<rect
  x="207.122"
  y="104.051"
  width="77.3413"
  height="34.3739"
  fill="#00FFE0"/>
<rect
  x="0.879395"
  y="104.051"
  width="77.3413"
  height="34.3739"
  fill="#00FFE0"/>
<rect
  x="0.879395"
  y="207.172"
  width="77.3413"
  height="34.3739"
  fill="#00FFE0"/>
<rect
  x="0.879395"
  y="258.733"
  width="77.3413"
  height="34.3739"
  fill="#00FFE0"/>
<rect
  x="0.879395"
  y="310.294"
  width="77.3413"
  height="34.3739"
  fill="#00FFE0"/>
<rect
  x="387.583"
  y="52.4915"
  width="77.3413"
  height="34.3739"
  fill="#00FFE0"/>
<rect
  x="387.589"
  y="0.928955"
  width="77.3413"
  height="34.3739"
  fill="#00FFE0"/>
<rect
  x="387.583"
  y="104.051"
  width="77.3413"
  height="34.3739"
  fill="#00FFE0"/>
<rect
  x="387.583"
  y="155.613"
  width="77.3413"
  height="34.3739"
  fill="#00FFE0"/>
<rect
  x="387.583"
  y="207.172"
  width="77.3413"
  height="34.3739"
  fill="#00FFE0"/>
<rect
  x="387.583"
  y="258.734"
  width="77.3413"
  height="34.3739"
  fill="#00FFE0"/>
<rect
  x="774.293"
  y="52.4897"
  width="107.418"
  height="34.3739"
  fill="#00FFE0"/>
<rect
  x="950.458"
  y="258.733"
  width="107.418"
  height="34.3739"
  fill="#00FFE0"/>
<rect
  x="774.292"
  y="0.928955"
  width="77.3413"
  height="34.3739"
  fill="#00FFE0"/>
<rect
  x="980.536"
  y="310.294"
  width="77.3413"
  height="34.3739"
  fill="#00FFE0"/>
<rect
  x="774.293"
  y="310.294"
  width="77.3413"
  height="34.3739"
  fill="#00FFE0"/>
<rect
  x="774.293"
  y="104.051"
  width="77.3413"
  height="34.3739"
  fill="#00FFE0"/>
<rect
  x="873.116"
  y="104.051"
  width="47.2641"
  height="34.3739"
  fill="#00FFE0"/>
<rect
  x="774.293"
  y="155.612"
  width="77.3413"
  height="34.3739"
  fill="#00FFE0"/>
<rect
  x="894.597"
  y="155.613"
  width="47.2641"
  height="34.3739"
  fill="#00FFE0"/>
<rect
  x="774.293"
  y="207.172"
  width="77.3413"
  height="34.3739"
  fill="#00FFE0"/>
<rect
  x="916.085"
  y="207.172"
  width="47.2641"
  height="34.3739"
  fill="#00FFE0"/>
<rect
  x="774.293"
  y="258.733"
  width="77.3413"
  height="34.3739"
  fill="#00FFE0"/>
<rect
  x="980.536"
  y="52.4897"
  width="77.3413"
  height="34.3739"
  fill="#00FFE0"/>
<rect
  x="980.536"
  y="0.928955"
  width="77.3413"
  height="34.3739"
  fill="#00FFE0"/>
<rect
  x="980.536"
  y="104.051"
  width="77.3413"
  height="34.3739"
  fill="#00FFE0"/>
<rect
  x="980.536"
  y="155.612"
  width="77.3413"
  height="34.3739"
  fill="#00FFE0"/>
<rect
  x="980.536"
  y="207.172"
  width="77.3413"
  height="34.3739"
  fill="#00FFE0"/>
<rect
  x="593.833"
  y="52.4915"
  width="77.3413"
  height="34.3739"
  fill="#00FFE0"/>
<rect
  x="593.833"
  y="0.928955"
  width="77.3413"
  height="34.3739"
  fill="#00FFE0"/>
<rect
  x="593.833"
  y="104.051"
  width="77.3413"
  height="34.3739"
  fill="#00FFE0"/>
<rect
  x="593.833"
  y="155.613"
  width="77.3413"
  height="34.3739"
  fill="#00FFE0"/>
<rect
  x="593.833"
  y="207.172"
  width="77.3413"
  height="34.3739"
  fill="#00FFE0"/>
<rect
  x="593.833"
  y="258.734"
  width="77.3413"
  height="34.3739"
  fill="#00FFE0"/>
<rect
  x="426.257"
  y="310.294"
  width="77.3413"
  height="34.3739"
  fill="#00FFE0"/>
<rect
  x="490.708"
  y="258.733"
  width="77.3413"
  height="34.3739"
  fill="#00FFE0"/>
<rect
  x="490.708"
  y="207.172"
  width="77.3413"
  height="34.3739"
  fill="#00FFE0"/>
<rect
  x="555.158"
  y="310.294"
  width="77.3413"
  height="34.3739"
  fill="#00FFE0"/>
</svg>