<svg width="20" height="20" viewBox="0 0 20 20" fill="#00FFE0" xmlns="http://www.w3.org/2000/svg">
    <path fill-rule="evenodd" clip-rule="evenodd" d="M17.9531 10.3535C17.9531 14.7718 14.3714 18.3535 9.95312 18.3535C5.53485 18.3535 1.95312 14.7718 1.95312 10.3535C1.95312 5.93524 5.53485 2.35352 9.95312 2.35352C14.3714 2.35352 17.9531 5.93524 17.9531 10.3535ZM11.4529 4.85352L12.7372 7.56991L15.4536 8.85425L12.7372 10.1386L11.4529 12.855L10.1685 10.1386L7.45215 8.85425L10.1685 7.56991L11.4529 4.85352ZM7.75521 12.5512L6.95276 10.854L6.15031 12.5512L4.45312 13.3536L6.15031 14.1561L6.95276 15.8533L7.75521 14.1561L9.45239 13.3536L7.75521 12.5512Z"/>
</svg>
